<svg id="osDXP_Logo" xmlns="http://www.w3.org/2000/svg" xmlns:xlink="http://www.w3.org/1999/xlink" viewBox="0 0 813.35 274"><defs><style>.cls-1{fill:#23262b;}.cls-2{fill:url(#osDXP_gradient);}</style><linearGradient id="osDXP_gradient" x1="33.21" y1="240.62" x2="231.23" y2="42.6" gradientUnits="userSpaceOnUse"><stop offset="0" stop-color="#4b1be2"/><stop offset="1" stop-color="#e81818"/></linearGradient></defs><title>osDXP_logo</title><path class="cls-1" d="M512.24,73.11h52.58q23.86,0,33.6,16.13t9.75,46q0,31.42-10.75,46.79t-32.6,15.37H512.24Zm50.06,102q11.26,0,16.13-9.83t4.87-30q0-15.78-2.27-24.44t-6.8-12q-4.53-3.36-11.93-3.36H537.1v79.63Z" transform="translate(-0.11 0)"/><path class="cls-1" d="M677.21,136.45l38.14,61H687.8l-25.87-41.32-23.69,41.32H610.69L649,135.11l-38.81-62h27.55l26.55,42.51,24.19-42.51h27.38Z" transform="translate(-0.11 0)"/><path class="cls-1" d="M725.26,73.11h52.42q15.62,0,25.7,8.74t10.08,33.94q0,43.68-34.77,43.68a134.69,134.69,0,0,1-14-.93q-8.57-.91-14.61-1.76v40.65H725.26Zm49.56,64q6.72,0,10.17-5T788.43,116q0-20.49-13.1-20.49h-25.2v41.66Z" transform="translate(-0.11 0)"/><path class="cls-1" d="M327.56,193q-10.24-4.46-15.54-17.21c-3.53-8.5-5.29-17.24-5.29-33.81s1.79-24.45,5.37-33.1,8.79-14.53,15.63-17.61,16.07-4.62,27.72-4.62q17.81,0,28.05,4.62T399,108.85c3.53,8.65,5.29,16.53,5.29,33.1s-1.76,25.31-5.29,33.81S390.33,190,383.5,193s-16.18,4.46-28.05,4.46S334.39,196,327.56,193Zm47-13.22q6.72-3.36,9.74-12.91c2-6.38,3-12.14,3-24.89,0-13.28-1-18.42-3-24.9s-5.23-10.78-9.66-12.91S363.85,101,355.45,101q-12.1,0-18.73,3.26t-9.92,13c-2.18,6.48-3.27,11.57-3.27,24.74,0,12.85,1,18.65,2.94,25s5.15,10.59,9.57,12.83,10.89,3.34,19.41,3.34Q367.87,183.09,374.6,179.75Z" transform="translate(-0.11 0)"/><path class="cls-1" d="M437.35,196.56a139.64,139.64,0,0,1-17.9-2.31V181.82q13.95,1.27,37.13,1.27,11.93,0,18.48-3.42t6.55-12.51V164.1q0-14.82-16.63-14.82h-12.6q-16.63,0-25.2-6.93t-8.57-22.71v-1.79q0-16.26,9.33-23.74t27.8-7.49a176.47,176.47,0,0,1,18.48,1.11q10.41,1.13,17.81,2.39v12.43l-3.53-.16Q467,101,457.59,101q-11.43,0-17.14,3.82t-5.71,13.87v0q0,8.29,4.62,11.8t13.86,3.5h13.61q15.12,0,23,7.73t7.89,20.48v4.49q0,17.37-10.58,24.06t-29.91,6.69Q448.69,197.43,437.35,196.56Z" transform="translate(-0.11 0)"/><path class="cls-2" d="M86.69,98.83a21,21,0,1,0-29.43,19.23v50.19a25.31,25.31,0,0,0,12.63,21.87l54.31,31.36a25.33,25.33,0,0,0,25.25,0l54.31-31.36a25.31,25.31,0,0,0,12.63-21.87V105.3a25.26,25.26,0,0,0-2.65-11.24,9.48,9.48,0,0,0-.51-1.07,7.81,7.81,0,0,0-.55-.82,25.24,25.24,0,0,0-8.92-8.74L149.45,52.08a25.3,25.3,0,0,0-25.25,0L98.82,66.73a8,8,0,0,0,8,13.86L132.2,65.94a9.26,9.26,0,0,1,9.25,0l51.31,29.62-28.18,16.28a38,38,0,1,0-35.76,63v30.86l-50.93-29.4a9.28,9.28,0,0,1-4.62-8V118.39A21,21,0,0,0,86.69,98.83Zm87.95,38.76a38.16,38.16,0,0,0-1.94-12l27.68-16v58.6a9.27,9.27,0,0,1-4.62,8l-50.93,29.4V174.71A38.08,38.08,0,0,0,174.64,137.59Zm-60,0A22,22,0,0,1,156,127.21a21.74,21.74,0,0,1,2.59,10.38,22,22,0,1,1-44,0Zm145.5-51.3V187.71a35.88,35.88,0,0,1-17.89,31l-87.5,50.52a35.89,35.89,0,0,1-35.79,0L52.25,230.54a8,8,0,1,1,8-13.85L127,255.36a19.83,19.83,0,0,0,19.77,0l87.49-50.52a19.84,19.84,0,0,0,9.89-17.13V86.29a19.84,19.84,0,0,0-9.89-17.13L146.72,18.64a19.86,19.86,0,0,0-19.79,0L39.44,69.16a19.84,19.84,0,0,0-9.89,17.13V179.6a21,21,0,1,1-16-.34v-93a35.88,35.88,0,0,1,17.89-31l87.5-50.52a35.9,35.9,0,0,1,35.79,0l87.5,50.52A35.88,35.88,0,0,1,260.11,86.29Z" transform="translate(-0.11 0)"/></svg>